<!--
  背景：
    - 词典复制操作需要在成功后呈现明确反馈，现有资源库缺乏对应勾选图标。
  目的：
    - 提供 copy-success 状态下的视觉资产，与工具栏按钮的 currentColor 渲染体系保持一致。
  关键决策与取舍：
    - 复用 Heroicons 20px 勾选轮廓并保持圆角，与既有 20x20 图标尺寸和笔画风格对齐，避免引入额外设计资源。
  影响范围：
    - OutputToolbar 等依赖 copy-success 图标的状态反馈按钮。
  演进与TODO：
    - 如未来需要语义着色或动画，可在主题层扩展角色色或 SVG 动态属性。
-->
<svg
  width="20"
  height="20"
  viewBox="0 0 20 20"
  fill="currentColor"
  xmlns="http://www.w3.org/2000/svg"
>
  <path
    d="M10 1.5C5.30558 1.5 1.5 5.30558 1.5 10C1.5 14.6944 5.30558 18.5 10 18.5C14.6944 18.5 18.5 14.6944 18.5 10C18.5 5.30558 14.6944 1.5 10 1.5ZM13.8536 8.10355C14.0488 8.29882 14.0488 8.6154 13.8536 8.81066L9.47855 13.1857C9.28328 13.381 8.9667 13.381 8.77144 13.1857L6.14644 10.5607C5.95118 10.3654 5.95118 10.0488 6.14644 9.85355C6.3417 9.65829 6.65828 9.65829 6.85355 9.85355L9.125 12.125L13.1464 8.10355C13.3417 7.90829 13.6583 7.90829 13.8536 8.10355Z"
  />
</svg>
