<svg width="1359" height="453" viewBox="0 0 1359 453" fill="none" xmlns="http://www.w3.org/2000/svg">
<rect x="468.142" y="226.274" width="300" height="300" rx="10" transform="rotate(-45 468.142 226.274)" stroke="black" stroke-width="20"/>
<rect x="468.142" y="226.274" width="300" height="300" rx="10" transform="rotate(-45 468.142 226.274)" stroke="black" stroke-opacity="0.2" stroke-width="20"/>
<rect x="242.142" y="226.274" width="300" height="300" rx="10" transform="rotate(-45 242.142 226.274)" stroke="black" stroke-width="20"/>
<rect x="242.142" y="226.274" width="300" height="300" rx="10" transform="rotate(-45 242.142 226.274)" stroke="black" stroke-opacity="0.2" stroke-width="20"/>
<rect x="14.1421" y="226.274" width="300" height="300" rx="10" transform="rotate(-45 14.1421 226.274)" stroke="black" stroke-width="20"/>
<rect x="14.1421" y="226.274" width="300" height="300" rx="10" transform="rotate(-45 14.1421 226.274)" stroke="black" stroke-opacity="0.2" stroke-width="20"/>
<rect x="694.142" y="226.274" width="300" height="300" rx="10" transform="rotate(-45 694.142 226.274)" stroke="black" stroke-width="20"/>
<rect x="694.142" y="226.274" width="300" height="300" rx="10" transform="rotate(-45 694.142 226.274)" stroke="black" stroke-opacity="0.2" stroke-width="20"/>
<rect x="920.142" y="226.274" width="300" height="300" rx="10" transform="rotate(-45 920.142 226.274)" stroke="black" stroke-width="20"/>
<rect x="920.142" y="226.274" width="300" height="300" rx="10" transform="rotate(-45 920.142 226.274)" stroke="black" stroke-opacity="0.2" stroke-width="20"/>
</svg>
