<svg width="1024" height="1024" viewBox="0 0 1024 1024" fill="none" xmlns="http://www.w3.org/2000/svg">
  <path
    fill="currentColor"
    d="M512 128C417.707 128 341.333 204.373 341.333 298.667v256c0 94.293 76.373 170.667 170.667 170.667s170.667-76.373 170.667-170.667V298.667c0-94.293-76.373-170.667-170.667-170.667zm213.333 298.667v85.333c0 117.76-95.573 213.333-213.333 213.333s-213.333-95.573-213.333-213.333v-85.333H213.333v85.333c0 150.613 111.36 274.347 256 295.253V896h85.333v-88.747c144.64-20.907 256-144.64 256-295.253v-85.333h-85.333z"
  />
</svg>
