<svg width="672" height="710" viewBox="0 0 672 710" fill="none" xmlns="http://www.w3.org/2000/svg">
<path d="M0.00241865 454.301C0.000922033 461.448 3.76334 468.166 10.2495 471.168C27.0526 478.942 45.3871 482.999 63.9933 483C86.4597 483.001 108.531 477.089 127.988 465.858C147.446 454.627 163.605 438.472 174.841 419.017C186.077 399.563 191.995 377.493 192 355.027C192.005 332.56 186.096 310.488 174.868 291.029C163.64 271.57 147.488 255.408 128.035 244.169C108.582 232.93 86.5133 227.008 64.0469 227C45.4407 226.993 27.1045 231.042 10.2981 238.81C3.81074 241.808 0.0455105 248.525 0.0440138 255.672L0.00241865 454.301Z" fill="white"/>
<path d="M671.998 454.301C671.999 461.448 668.237 468.166 661.751 471.168C644.947 478.942 626.613 482.999 608.007 483C585.54 483.001 563.469 477.089 544.012 465.858C524.554 454.627 508.395 438.472 497.159 419.017C485.923 399.563 480.005 377.493 480 355.027C479.995 332.56 485.904 310.488 497.132 291.029C508.36 271.57 524.512 255.408 543.965 244.169C563.418 232.93 585.487 227.008 607.953 227C626.559 226.993 644.896 231.042 661.702 238.81C668.189 241.808 671.954 248.525 671.956 255.672L671.998 454.301Z" fill="white"/>
<path d="M253.85 695.618C260.039 699.192 267.738 699.293 273.58 695.176C288.715 684.512 301.395 670.662 310.699 654.549C321.933 635.093 327.849 613.023 327.851 590.557C327.854 568.09 321.943 546.019 310.713 526.561C299.482 507.103 283.329 490.943 263.874 479.706C244.42 468.468 222.351 462.549 199.885 462.543C177.418 462.538 155.346 468.445 135.886 479.672C116.426 490.899 100.264 507.05 89.0235 526.503C79.7145 542.613 74.0529 560.517 72.3768 578.956C71.7298 586.073 75.6639 592.692 81.8525 596.267L253.85 695.618Z" fill="white"/>
<path d="M589.848 113.653C596.038 117.225 599.975 123.842 599.331 130.96C597.662 149.399 592.008 167.306 582.706 183.42C571.474 202.877 555.318 219.035 535.863 230.27C516.408 241.505 494.338 247.422 471.871 247.426C449.405 247.429 427.333 241.519 407.874 230.29C388.416 219.061 372.255 202.908 361.017 183.455C349.778 164.001 343.858 141.932 343.851 119.466C343.844 96.9994 349.75 74.9268 360.977 55.4662C370.274 39.3494 382.948 25.4943 398.079 14.8234C403.919 10.7044 411.618 10.8019 417.808 14.374L589.848 113.653Z" fill="white"/>
<path d="M589.848 596.316C596.038 592.744 599.975 586.127 599.331 579.009C597.662 560.57 592.008 542.663 582.706 526.549C571.474 507.092 555.318 490.934 535.863 479.699C516.408 468.464 494.338 462.547 471.871 462.543C449.405 462.54 427.333 468.45 407.874 479.679C388.416 490.908 372.255 507.061 361.017 526.514C349.778 545.968 343.858 568.037 343.851 590.503C343.844 612.97 349.75 635.042 360.977 654.503C370.274 670.62 382.948 684.475 398.079 695.146C403.919 699.265 411.618 699.167 417.808 695.595L589.848 596.316Z" fill="white"/>
<path d="M253.85 14.3513C260.039 10.7766 267.738 10.6759 273.58 14.7925C288.715 25.457 301.395 39.3069 310.699 55.4198C321.933 74.8757 327.849 96.9458 327.851 119.412C327.854 141.879 321.943 163.95 310.713 183.408C299.482 202.866 283.329 219.026 263.874 230.263C244.42 241.501 222.351 247.42 199.885 247.426C177.418 247.431 155.346 241.524 135.886 230.297C116.426 219.07 100.264 202.919 89.0235 183.466C79.7145 167.356 74.0529 149.452 72.3768 131.013C71.7298 123.896 75.6639 117.277 81.8525 113.702L253.85 14.3513Z" fill="white"/>
</svg>
