<svg width="1024" height="1024" viewBox="0 0 1024 1024" fill="none" xmlns="http://www.w3.org/2000/svg">
<rect width="160" height="160" rx="20" transform="matrix(0 1 1 0 672 432)" fill="#121212"/>
<rect width="160" height="160" rx="20" transform="matrix(0 1 1 0 192 432)" fill="#121212"/>
<rect width="160" height="160" rx="20" transform="matrix(0 1 1 0 192 672)" fill="#121212"/>
<path d="M452 672C440.954 672 432 680.954 432 692V812C432 823.046 440.954 832 452 832H572C583.046 832 592 823.03 592 811.985C592 767.714 592 736.286 592 692.015C592 680.97 583.046 672 572 672H452Z" fill="#121212"/>
<path d="M452 192C440.954 192 432 200.954 432 212V332C432 343.046 440.954 352 452 352H572C583.046 352 592 343.03 592 331.985C592 287.714 592 256.286 592 212.015C592 200.97 583.046 192 572 192H452Z" fill="#121212"/>
<rect width="160" height="160" rx="20" transform="matrix(0 1 1 0 672 192)" fill="#121212"/>
</svg>
