<svg
  width="24"
  height="24"
  viewBox="0 0 24 24"
  fill="none"
  xmlns="http://www.w3.org/2000/svg"
  role="img"
  aria-hidden="true"
>
  <title>Star Outline</title>
  <path
    d="M11.245 4.174c.231-.666.347-.999.518-1.091a.5.5 0 0 1 .475 0c.171.092.287.425.518 1.091l1.53 4.402c.066.19.099.285.158.355a.5.5 0 0 0 .195.142c.085.034.186.036.387.04l4.66.095c.705.014 1.057.021 1.198.151a.5.5 0 0 1 .147.455c-.035.191-.316.404-.878.83l-3.714 2.816c-.16.118-.24.179-.288.257-.043.07-.068.148-.074.23-.006.091.023.187.081.378l1.35 4.461c.204.675.306 1.012.222 1.187a.5.5 0 0 1-.384.279c-.193.026-.482-.175-1.061-.578l-3.826-2.662c-.165-.114-.247-.172-.336-.194a.5.5 0 0 0-.321 0c-.09.022-.172.08-.337.194l-3.826 2.662c-.579.403-.868.604-1.061.578a.5.5 0 0 1-.384-.279c-.084-.175.018-.512.222-1.187l1.35-4.461c.058-.192.087-.288.081-.379-.006-.081-.032-.16-.081-.238-.048-.078-.128-.138-.288-.26l-3.714-2.815c-.561-.426-.842-.639-.877-.83a.5.5 0 0 1 .146-.451c.141-.134.493-.141 1.198-.155l4.66-.094c.2-.004.301-.006.386-.041a.5.5 0 0 0 .195-.142c.059-.07.092-.165.158-.355l1.53-4.402Z"
    stroke="currentColor"
    stroke-width="2"
    stroke-linecap="round"
    stroke-linejoin="round"
  />
</svg>
