<svg width="320" height="160" viewBox="0 0 320 160" fill="none" xmlns="http://www.w3.org/2000/svg">
<g clip-path="url(#clip0_44_58)">
<rect x="320" width="160" height="320" rx="20" transform="rotate(90 320 0)" fill="white"/>
<path d="M72.52 123V39.928H101.832C111.176 39.928 118.451 42.232 123.656 46.84C128.904 51.448 131.528 57.976 131.528 66.424C131.528 74.7867 128.904 81.272 123.656 85.88C118.451 90.488 111.176 92.792 101.832 92.792H87.752V123H72.52ZM87.752 79.608H101.832C106.525 79.608 110.067 78.3707 112.456 75.896C114.845 73.4213 116.04 70.264 116.04 66.424C116.04 62.4987 114.845 59.2773 112.456 56.76C110.067 54.2427 106.525 52.984 101.832 52.984H87.752V79.608ZM147.154 123V60.664H162.258V123H147.154ZM158.546 95.736C158.546 87.5867 159.463 80.8453 161.298 75.512C163.133 70.1787 165.586 66.232 168.658 63.672C171.773 61.0693 175.229 59.768 179.026 59.768C180.05 59.768 181.01 59.832 181.906 59.96C182.845 60.088 183.762 60.28 184.658 60.536L184.402 75.64C183.293 75.384 182.098 75.1707 180.818 75C179.538 74.8293 178.386 74.744 177.362 74.744C174.034 74.744 171.239 75.5547 168.978 77.176C166.759 78.7547 165.074 81.1013 163.922 84.216C162.813 87.3307 162.258 91.1707 162.258 95.736H158.546ZM221.852 124.792C216.177 124.792 211.036 123.576 206.428 121.144C201.863 118.712 198.236 115.085 195.548 110.264C192.86 105.4 191.516 99.32 191.516 92.024C191.516 84.6 192.86 78.456 195.548 73.592C198.236 68.728 201.863 65.1013 206.428 62.712C211.036 60.3227 216.177 59.128 221.852 59.128C227.441 59.128 232.497 60.3227 237.02 62.712C241.585 65.1013 245.212 68.728 247.9 73.592C250.588 78.456 251.932 84.6 251.932 92.024C251.932 99.32 250.588 105.4 247.9 110.264C245.212 115.085 241.585 118.712 237.02 121.144C232.497 123.576 227.441 124.792 221.852 124.792ZM221.34 111.608C224.327 111.608 226.972 110.883 229.276 109.432C231.623 107.939 233.457 105.741 234.78 102.84C236.145 99.9387 236.828 96.3333 236.828 92.024C236.828 85.4533 235.527 80.504 232.924 77.176C230.364 73.848 226.844 72.184 222.364 72.184C219.335 72.184 216.647 72.9307 214.3 74.424C211.953 75.8747 210.097 78.072 208.732 81.016C207.409 83.96 206.748 87.6293 206.748 92.024C206.748 98.5093 208.049 103.395 210.652 106.68C213.297 109.965 216.86 111.608 221.34 111.608Z" fill="#121212"/>
</g>
<defs>
<clipPath id="clip0_44_58">
<rect width="320" height="160" fill="white"/>
</clipPath>
</defs>
</svg>
