<svg
  viewBox="0 0 672 710"
  xmlns="http://www.w3.org/2000/svg"
  fill="currentColor"
>
  <path
    d="M0 465.851C19.4565 477.084 41.5269 482.999 63.9093 483C86.4597 483.001 108.531 477.089 127.988 465.858C147.446 454.627 163.605 438.472 174.841 419.017C186.077 399.563 191.995 377.493 192 355.027C192.005 332.56 186.096 310.488 174.868 291.029C163.64 271.57 147.488 255.408 128.035 244.169C108.582 232.93 86.5133 227.008 64.0469 227C41.5805 226.992 19.5076 232.897 0.0464325 244.122L0 465.851Z"
  />
  <path
    d="M672 465.851C652.544 477.084 630.473 482.999 608.007 483C585.54 483.001 563.469 477.089 544.012 465.858C524.554 454.627 508.395 438.472 497.159 419.017C485.923 399.563 480.005 377.493 480 355.027C479.995 332.56 485.904 310.488 497.132 291.029C508.36 271.57 524.512 255.408 543.965 244.169C563.418 232.93 585.487 227.008 607.953 227C630.42 226.992 652.492 232.897 671.954 244.122L672 465.851Z"
  />
  <path
    d="M263.851 701.395C283.308 690.161 299.465 674.005 310.699 654.549C321.933 635.093 327.849 613.023 327.851 590.557C327.854 568.09 321.943 546.019 310.713 526.561C299.482 507.103 283.329 490.943 263.874 479.706C244.42 468.468 222.351 462.549 199.885 462.543C177.418 462.538 155.346 468.445 135.886 479.672C116.426 490.899 100.264 507.05 89.0235 526.503C77.7831 545.955 71.8607 568.023 71.8513 590.49L263.851 701.395Z"
  />
  <path
    d="M599.851 119.426C599.851 141.892 593.938 163.963 582.706 183.42C571.474 202.877 555.318 219.035 535.863 230.27C516.408 241.505 494.338 247.422 471.871 247.426C449.405 247.429 427.333 241.519 407.874 230.29C388.416 219.061 372.255 202.908 361.017 183.455C349.778 164.001 343.858 141.932 343.851 119.466C343.844 96.9994 349.75 74.9268 360.977 55.4662C372.203 36.0056 388.353 19.8425 407.805 8.60117L599.851 119.426Z"
  />
  <path
    d="M599.851 590.543C599.851 568.077 593.938 546.006 582.706 526.549C571.474 507.092 555.318 490.934 535.863 479.699C516.408 468.464 494.338 462.547 471.871 462.543C449.405 462.54 427.333 468.45 407.874 479.679C388.416 490.908 372.255 507.061 361.017 526.514C349.778 545.968 343.858 568.037 343.851 590.503C343.844 612.97 349.75 635.042 360.977 654.503C372.203 673.963 388.353 690.127 407.805 701.368L599.851 590.543Z"
  />
  <path
    d="M263.851 8.57441C283.308 19.8076 299.465 35.964 310.699 55.4199C321.933 74.8758 327.849 96.9458 327.851 119.412C327.854 141.879 321.943 163.95 310.713 183.408C299.482 202.867 283.329 219.026 263.874 230.264C244.42 241.501 222.351 247.42 199.885 247.426C177.418 247.432 155.346 241.524 135.886 230.297C116.426 219.07 100.264 202.919 89.0235 183.466C77.7831 164.014 71.8607 141.946 71.8513 119.479L263.851 8.57441Z"
  />
</svg>
