<!--
背景：
 - 响应风格设置沿用外部图标，描边颜色固定为黑色，导致暗色模式下对比失衡。
目的：
 - 统一改用 currentColor 描边，使图标随语义色自动调整。
关键决策与取舍：
 - 保留原图的对称结构与 192 画布，避免缩放失真；
 - 仅替换 stroke 属性，未额外压缩路径，以维持细节。
影响范围：
 - response style 面板及依赖 personalization 图标的测试。
演进与TODO：
 - 若需区分多主题，可考虑在此基础上叠加渐变遮罩。
-->
<svg
  xmlns="http://www.w3.org/2000/svg"
  viewBox="0 0 192 192"
  fill="none"
  aria-hidden="true"
>
  <path
    d="M78 64.823 56.503 52.412C47.893 47.44 36.885 50.39 31.914 59c-4.97 8.61-2.02 19.618 6.589 24.588L60 96l-21.497 12.412c-8.61 4.97-11.56 15.979-6.589 24.588 4.97 8.609 15.98 11.559 24.589 6.589L78 127.177m0-62.354V40c0-9.941 8.059-18 18-18s18 8.059 18 18v24.823m-36 0 18 10.392m0 0 18 10.393L132 96M96 75.215l18-10.392m-18 51.962 18-10.393L132 96m-36 20.785-18 10.392m18-10.392 18 10.392m-36 0V152c0 9.941 8.059 18 18 18s18-8.059 18-18v-24.823m0 0 21.497 12.411c8.61 4.971 19.618 2.021 24.589-6.588 4.97-8.609 2.021-19.618-6.589-24.588L132 96m-18-31.177 21.497-12.411c8.61-4.97 19.618-2.021 24.589 6.588 4.97 8.61 2.021 19.618-6.589 24.588L132 96"
    stroke="currentColor"
    stroke-width="12"
  />
</svg>
